PathFileType	4	(X/Y/Z)	/Users/itak/Documents/Research/Walk-IL/dataset/trc/00493_00167.trc
DataRate	CameraRate	NumFrames	NumMarkers	Units	OrigDataRate	OrigDataStartFrame	OrigNumFrames
100.000000	100.000000	4	53	mm	100.000000	372	596
Frame#	Time	RPSI			LPSI			L3			STRN			T10			C7			CLAV			RBAK			LBAK			LSHO			LUPA			LAEL			LAOL			LWTS			LWPS			LFRA			LIFD			LHPS			LHTS			RSHO			RUPA			RAEL			RAOL			RWTS			RWPS			RFRA			RIFD			RHTS			RHPS			RBHD			LFHD			RFHD			LBHD			LHIP			RHIP			RASI			LASI			LKNE			LTHI			LANK			LTIP			LTOE			LMT1			LMT5			LHEE			RKNE			RTHI			RANK			RTIP			RTOE			RMT1			RMT5			RHEE			
		X1	Y1	Z1	X2	Y2	Z2	X3	Y3	Z3	X4	Y4	Z4	X5	Y5	Z5	X6	Y6	Z6	X7	Y7	Z7	X8	Y8	Z8	X9	Y9	Z9	X10	Y10	Z10	X11	Y11	Z11	X12	Y12	Z12	X13	Y13	Z13	X14	Y14	Z14	X15	Y15	Z15	X16	Y16	Z16	X17	Y17	Z17	X18	Y18	Z18	X19	Y19	Z19	X20	Y20	Z20	X21	Y21	Z21	X22	Y22	Z22	X23	Y23	Z23	X24	Y24	Z24	X25	Y25	Z25	X26	Y26	Z26	X27	Y27	Z27	X28	Y28	Z28	X29	Y29	Z29	X30	Y30	Z30	X31	Y31	Z31	X32	Y32	Z32	X33	Y33	Z33	X34	Y34	Z34	X35	Y35	Z35	X36	Y36	Z36	X37	Y37	Z37	X38	Y38	Z38	X39	Y39	Z39	X40	Y40	Z40	X41	Y41	Z41	X42	Y42	Z42	X43	Y43	Z43	X44	Y44	Z44	X45	Y45	Z45	X46	Y46	Z46	X47	Y47	Z47	X48	Y48	Z48	X49	Y49	Z49	X50	Y50	Z50	X51	Y51	Z51	X52	Y52	Z52	X53	Y53	Z53	

373	3.72	-114.7876586914062	927.3875122070312	135.6164855957031	-193.9270324707031	921.656005859375	16.9409236907959	-132.8704223632812	1032.03125	85.46961975097656	60.52959060668945	1237.34619140625	-99.18801116943359	-149.0316314697266	1155.707397460938	94.59226226806641	-105.4665908813477	1426.989379882812	56.71571731567383	21.80503082275391	1347.654296875	-79.97965240478516	-79.41127014160156	1311.649169921875	170.5607452392578	-195.7921905517578	1370.663208007812	10.23730850219727	-180.0178375244141	1389.503295898438	-117.4257507324219	-241.2741241455078	1262.559814453125	-181.0053100585938	-216.9747619628906	1047.141235351562	-220.7623138427734	-239.8862609863281	1031.2998046875	-120.7029342651367	-103.6578598022461	850.3723754882812	-220.1091918945312	-169.9761199951172	834.85693359375	-251.6803283691406	-194.6574249267578	961.3812255859375	-240.7709655761719	-100.1137237548828	686.3004760742188	-226.1320037841797	-157.9440460205078	757.4448852539062	-257.3834533691406	-90.09403228759766	764.7339477539062	-232.7933502197266	55.73151397705078	1407.41357421875	123.4035949707031	96.96380615234375	1351.769653320312	191.8969268798828	163.8493194580078	1076.53564453125	254.5280609130859	100.2980117797852	1051.361083984375	258.5920104980469	231.6211242675781	873.8046875	156.4417877197266	230.2413330078125	861.9617309570312	243.6278839111328	180.841552734375	1019.821105957031	261.0064392089844	248.1256713867188	718.3517456054688	161.9237670898438	256.5550537109375	777.9779663085938	154.2010650634766	245.7789306640625	774.1029052734375	230.4897766113281	10.29422950744629	1647.170043945312	-6.29453706741333	-93.92449951171875	1608.7724609375	-180.7053833007812	26.48109436035156	1641.831176757812	-143.0319061279297	-159.5036315917969	1608.752197265625	-42.44320678710938	-127.0060501098633	829.0577392578125	-159.7842254638672	69.63058471679688	845.425537109375	187.1299591064453	118.7443008422852	891.3223876953125	76.04485321044922	-11.46819114685059	881.6680297851562	-141.2038726806641	23.61942863464355	425.374755859375	-146.6373291015625	-14.87716865539551	576.389892578125	-179.8851776123047	-27.94771194458008	36.20325088500977	-2.147156238555908	12.98453426361084	269.6141967773438	-118.0151519775391	177.4371948242188	39.55703353881836	-130.7886199951172	148.5396575927734	42.40203475952148	-56.53427886962891	61.51735305786133	47.33232879638672	-124.8955459594727	-7.066828727722168	43.1451301574707	72.99999237060547	182.7692108154297	483.6665344238281	185.3427886962891	141.6080169677734	729.919677734375	177.6966400146484	-98.64661407470703	218.8183746337891	400.8357543945312	121.3574447631836	373.5813598632812	254.3136596679688	-23.41647720336914	42.44112777709961	304.1882019042969	-66.04617309570312	98.12794494628906	283.3007202148438	-41.81633377075195	101.8758926391602	388.7054748535156	-149.9918975830078	273.4940795898438	376.4326477050781	
374	3.73	-106.403076171875	928.1095581054688	133.3437347412109	-188.6552429199219	922.2333374023438	16.74237060546875	-126.4300765991211	1033.10205078125	83.09709930419922	63.87387847900391	1238.17236328125	-105.1160430908203	-142.78759765625	1156.812744140625	91.95332336425781	-99.21989440917969	1428.051147460938	53.20291519165039	25.92776489257812	1348.604370117188	-85.13314819335938	-71.83179473876953	1312.508544921875	166.5692749023438	-190.4355163574219	1372.17041015625	7.764968872070312	-176.0212860107422	1391.15185546875	-119.9899444580078	-237.4210968017578	1264.666259765625	-184.1324005126953	-212.7691650390625	1049.664184570312	-225.9623870849609	-234.9816741943359	1032.651245117188	-126.0047225952148	-98.493408203125	854.4987182617188	-230.1749267578125	-165.5194091796875	837.8191528320312	-259.0011291503906	-190.3015441894531	964.2137451171875	-247.0142822265625	-91.70090484619141	690.7705688476562	-239.2602386474609	-152.7678375244141	760.7632446289062	-265.9062194824219	-84.22281646728516	769.11328125	-244.8899993896484	62.89123153686523	1407.988525390625	117.7135696411133	104.9010848999023	1352.075439453125	185.5273742675781	171.1906127929688	1076.32666015625	246.5675659179688	107.5197677612305	1051.611206054688	251.3430633544922	236.3651733398438	872.8636474609375	148.2070922851562	235.6653747558594	861.2459106445312	235.4406433105469	187.8049926757812	1019.488952636719	252.9396514892578	252.0140075683594	717.346435546875	154.0556488037109	260.7344055175781	776.8828125	146.0920562744141	250.5350036621094	773.2902221679688	222.4345855712891	16.42324066162109	1647.976684570312	-11.55509567260742	-89.81993103027344	1609.604858398438	-184.7682037353516	31.09131622314453	1642.318725585938	-148.4870452880859	-153.9259490966797	1610.072509765625	-45.73746109008789	-126.5703506469727	829.1090698242188	-161.2924194335938	80.22759246826172	846.8349609375	179.5317993164062	125.1952819824219	892.8195190429688	67.14179992675781	-10.62462711334229	882.2415161132812	-146.6826782226562	22.82636070251465	425.0146179199219	-147.4946594238281	-15.31103324890137	575.8424682617188	-181.1563262939453	-27.97592163085938	36.20456695556641	-2.021581888198853	12.57733535766602	269.2424621582031	-118.6640548706055	177.3822174072266	39.60828018188477	-130.7899169921875	148.4633026123047	42.43197631835938	-56.60161209106445	61.40916061401367	47.30029678344727	-124.9336776733398	-7.012062549591064	43.18462371826172	73.05290222167969	196.7693328857422	486.1302795410156	171.7378387451172	152.8199005126953	731.9447021484375	167.4173736572266	-73.90264892578125	215.7645874023438	394.6584167480469	138.9757080078125	375.4742126464844	242.1594543457031	6.091466426849365	43.48223495483398	294.8358764648438	-39.48639678955078	97.40743255615234	275.2422790527344	-12.93510913848877	101.3225860595703	380.0879516601562	-127.623420715332	268.8977661132812	372.2191772460938	
375	3.74	-97.90087127685547	928.918212890625	131.1373748779297	-183.2351684570312	922.935791015625	16.71144676208496	-119.9581604003906	1034.228515625	80.76193237304688	67.12210083007812	1239.015869140625	-111.0014343261719	-136.6138000488281	1157.943481445312	89.40141296386719	-92.98954010009766	1429.115600585938	49.68220138549805	30.01165580749512	1349.576049804688	-90.23909759521484	-64.31057739257812	1313.366455078125	162.5735626220703	-185.0920715332031	1373.71337890625	5.304591655731201	-172.0009918212891	1392.871826171875	-122.5368347167969	-233.6992034912109	1266.903198242188	-187.1905364990234	-209.05859375	1052.248779296875	-230.9518890380859	-230.1667633056641	1034.116455078125	-131.0592041015625	-93.80470275878906	858.9296875	-240.489501953125	-161.5099639892578	840.7718505859375	-266.1049499511719	-186.5182647705078	967.0972900390625	-253.0638275146484	-83.15593719482422	695.7086181640625	-252.3737030029297	-147.9306945800781	764.0610961914062	-273.9852600097656	-78.58724212646484	773.9312744140625	-257.2523498535156	69.96968841552734	1408.59033203125	112.0334167480469	112.7244720458984	1352.437866210938	179.1926574707031	178.4450378417969	1076.207641601562	238.7426452636719	114.6797790527344	1051.906860351562	244.193115234375	241.2376708984375	872.1265869140625	140.0712890625	241.1693572998047	860.681640625	227.3348236083984	194.7228088378906	1019.260192871094	244.9991455078125	256.1104125976562	716.5521240234375	146.2007446289062	265.0755004882812	776.0000610351562	138.03125	255.4337005615234	772.6381225585938	214.4238433837891	22.58006477355957	1648.759521484375	-16.69375038146973	-85.62129211425781	1610.520263671875	-188.7423095703125	35.78810882568359	1642.813110351562	-153.7967987060547	-148.3003540039062	1611.460815429688	-48.9942626953125	-126.2204513549805	829.2236328125	-162.5631103515625	90.82173919677734	848.3173828125	171.7313690185547	131.5103912353516	894.3429565429688	58.09934234619141	-9.944539070129395	882.8319702148438	-152.0964050292969	21.94891357421875	424.7140808105469	-148.2120819091797	-15.95669269561768	575.3323974609375	-182.2248077392578	-28.01423835754395	36.21670150756836	-1.872323036193848	12.11862182617188	268.9275817871094	-119.2394409179688	177.3272552490234	39.65349960327148	-130.8035278320312	148.3824768066406	42.47491073608398	-56.67419052124023	61.27114868164062	47.2451057434082	-124.9917907714844	-6.94423770904541	43.22952651977539	73.11161804199219	209.9912414550781	488.5291442871094	157.8134613037109	163.8775482177734	734.0144653320312	156.8540191650391	-48.68173980712891	211.8729858398438	387.5526733398438	156.0237884521484	377.0709838867188	229.5151977539062	36.42686080932617	44.19818115234375	284.3790588378906	-12.22294807434082	96.00377655029297	266.1790466308594	16.63642883300781	100.3278656005859	370.3567504882812	-104.9263076782227	263.0654907226562	367.2257995605469	
376	3.75	-89.31024169921875	929.8208618164062	128.9507751464844	-177.6705932617188	923.7684326171875	16.79520225524902	-113.4797134399414	1035.384765625	78.46041870117188	70.27874755859375	1239.853881835938	-116.8549575805664	-130.4828186035156	1159.08154296875	86.89902496337891	-86.77587890625	1430.16943359375	46.15578079223633	34.05364608764648	1350.546142578125	-95.31450653076172	-56.83990097045898	1314.21484375	158.5823211669922	-179.755859375	1375.262939453125	2.866175413131714	-167.9811401367188	1394.633666992188	-125.0567932128906	-230.1534423828125	1269.227416992188	-190.1342010498047	-205.8123626708984	1054.859008789062	-235.7205657958984	-225.4263458251953	1035.651123046875	-135.8626251220703	-89.46965026855469	863.597412109375	-250.9123992919922	-157.7640380859375	843.7378540039062	-273.0550537109375	-183.2370452880859	970.0096435546875	-258.9064636230469	-74.63444519042969	700.9885864257812	-265.2713317871094	-143.2147979736328	767.3485107421875	-281.7520751953125	-73.14918518066406	779.0971069335938	-269.6520385742188	76.97844696044922	1409.197021484375	106.3448486328125	120.4524383544922	1352.837524414062	172.8727722167969	185.6282806396484	1076.16162109375	231.0623474121094	121.791748046875	1052.229614257812	237.1609039306641	246.23486328125	871.5770874023438	132.0111236572266	246.7842102050781	860.2521362304688	219.2856750488281	201.6158599853516	1019.118469238281	237.1870422363281	260.3939514160156	715.9443359375	138.3302764892578	269.5635375976562	775.3114624023438	129.9749755859375	260.4848937988281	772.1276245117188	206.4238128662109	28.76251220703125	1649.502563476562	-21.72183036804199	-81.33488464355469	1611.500366210938	-192.63525390625	40.56137847900391	1643.302001953125	-158.9726257324219	-142.6228332519531	1612.893798828125	-52.22558212280273	-125.8950042724609	829.40625	-163.6241302490234	101.3320465087891	849.8363647460938	163.7408599853516	137.6859436035156	895.8714599609375	48.97788619995117	-9.359855651855469	883.4308471679688	-157.4325561523438	21.03336334228516	424.4617919921875	-148.8346862792969	-16.76866340637207	574.8671264648438	-183.1250762939453	-28.05483245849609	36.23356628417969	-1.708248972892761	11.62290954589844	268.6634521484375	-119.745964050293	177.2711486816406	39.69294738769531	-130.8277740478516	148.2950439453125	42.52997970581055	-56.751220703125	61.09593200683594	47.16426086425781	-125.0736694335938	-6.860464572906494	43.2808952331543	73.17596435546875	222.4389038085938	490.8025207519531	143.5981903076172	174.7254180908203	736.0906372070312	146.0352935791016	-22.9555721282959	207.1972045898438	379.478515625	172.48828125	378.2997436523438	216.3744354248047	67.29766082763672	44.64830017089844	272.5807800292969	15.54841136932373	94.04634094238281	255.9796142578125	46.80847549438477	98.96738433837891	359.3436889648438	-81.84130096435547	256.0578002929688	361.4783630371094	
